REM DIRINDEX 1\2\6,1\2\7,1\2\8,1\3\9,1\3\10,1\3\11,1\4\12,1\4\13,1\4\14,1\5\15,1\5\16,1\5\17,1\5\18
REM DIRNAME folder01,folder02,folder03,folder04,folder05,folder06,folder07,folder08,folder09,folder10,folder11,folder12,folder13,folder14,folder15,folder16,folder17,folder18
TITLE ""
FILE "" MP3
  TRACK 01 AUDIO
    TITLE "16:cjc019_6745"
    INDEX 01 00:00:00
  TRACK 02 AUDIO
    TITLE "0:"
    INDEX 01 00:01:11
  TRACK 03 AUDIO
    TITLE "18:cjc019_6746"
    INDEX 01 00:01:64
  TRACK 04 AUDIO
    TITLE "0:"
    INDEX 01 00:05:46
  TRACK 05 AUDIO
    TITLE "17:cjc019_6747"
    INDEX 01 00:06:20
  TRACK 06 AUDIO
    TITLE "0:"
    INDEX 01 00:07:37
  TRACK 07 AUDIO
    TITLE "16:cjc019_6748"
    INDEX 01 00:09:22
  TRACK 08 AUDIO
    TITLE "0:"
    INDEX 01 00:10:31
  TRACK 09 AUDIO
    TITLE "18:cjc019_6749"
    INDEX 01 00:11:13
  TRACK 10 AUDIO
    TITLE "0:"
    INDEX 01 00:14:64
  TRACK 11 AUDIO
    TITLE "17:cjc019_6750"
    INDEX 01 00:15:42
  TRACK 12 AUDIO
    TITLE "0:"
    INDEX 01 00:16:53
  TRACK 13 AUDIO
    TITLE "16:cjc019_6751"
    INDEX 01 00:18:37
  TRACK 14 AUDIO
    TITLE "0:"
    INDEX 01 00:20:16
  TRACK 15 AUDIO
    TITLE "18:cjc019_6752"
    INDEX 01 00:21:00
  TRACK 16 AUDIO
    TITLE "0:"
    INDEX 01 00:23:59
  TRACK 17 AUDIO
    TITLE "17:cjc019_6753"
    INDEX 01 00:24:33
  TRACK 18 AUDIO
    TITLE "0:"
    INDEX 01 00:26:20
  TRACK 19 AUDIO
    TITLE "16:cjc019_6754"
    INDEX 01 00:28:00
  TRACK 20 AUDIO
    TITLE "0:"
    INDEX 01 00:29:36
  TRACK 21 AUDIO
    TITLE "18:cjc019_6755"
    INDEX 01 00:30:12
  TRACK 22 AUDIO
    TITLE "0:"
    INDEX 01 00:33:50
  TRACK 23 AUDIO
    TITLE "17:cjc019_6756"
    INDEX 01 00:34:28
  TRACK 24 AUDIO
    TITLE "0:"
    INDEX 01 00:35:64
  TRACK 25 AUDIO
    TITLE "16:cjc019_6757"
    INDEX 01 00:37:50
  TRACK 26 AUDIO
    TITLE "0:"
    INDEX 01 00:38:61
  TRACK 27 AUDIO
    TITLE "18:cjc019_6758"
    INDEX 01 00:39:49
  TRACK 28 AUDIO
    TITLE "0:"
    INDEX 01 00:42:37
  TRACK 29 AUDIO
    TITLE "17:cjc019_6759"
    INDEX 01 00:43:21
  TRACK 30 AUDIO
    TITLE "0:"
    INDEX 01 00:44:34
  TRACK 31 AUDIO
    TITLE "16:cjc019_6760"
    INDEX 01 00:46:19
  TRACK 32 AUDIO
    TITLE "0:"
    INDEX 01 00:47:44
  TRACK 33 AUDIO
    TITLE "18:cjc019_6761"
    INDEX 01 00:48:24
  TRACK 34 AUDIO
    TITLE "0:"
    INDEX 01 00:50:23
  TRACK 35 AUDIO
    TITLE "17:cjc019_6762"
    INDEX 01 00:51:09
  TRACK 36 AUDIO
    TITLE "0:"
    INDEX 01 00:52:28
  TRACK 37 AUDIO
    TITLE "16:cjc019_6763"
    INDEX 01 00:54:13
  TRACK 38 AUDIO
    TITLE "0:"
    INDEX 01 00:55:34
  TRACK 39 AUDIO
    TITLE "18:cjc019_6764"
    INDEX 01 00:56:18
  TRACK 40 AUDIO
    TITLE "0:"
    INDEX 01 00:58:26
  TRACK 41 AUDIO
    TITLE "17:cjc019_6765"
    INDEX 01 00:59:08
  TRACK 42 AUDIO
    TITLE "0:"
    INDEX 01 01:00:31
  TRACK 43 AUDIO
    TITLE "16:cjc019_6766"
    INDEX 01 01:02:06
  TRACK 44 AUDIO
    TITLE "0:"
    INDEX 01 01:03:43
  TRACK 45 AUDIO
    TITLE "18:cjc019_6767"
    INDEX 01 01:04:29
  TRACK 46 AUDIO
    TITLE "0:"
    INDEX 01 01:06:73
  TRACK 47 AUDIO
    TITLE "17:cjc019_6768"
    INDEX 01 01:07:49
  TRACK 48 AUDIO
    TITLE "0:"
    INDEX 01 01:09:10
  TRACK 49 AUDIO
    TITLE "16:cjc019_6769"
    INDEX 01 01:10:69
  TRACK 50 AUDIO
    TITLE "0:"
    INDEX 01 01:12:28
  TRACK 51 AUDIO
    TITLE "18:cjc019_6770"
    INDEX 01 01:13:02
  TRACK 52 AUDIO
    TITLE "0:"
    INDEX 01 01:14:25
  TRACK 53 AUDIO
    TITLE "17:cjc019_6771"
    INDEX 01 01:15:13
  TRACK 54 AUDIO
    TITLE "0:"
    INDEX 01 01:16:52
  TRACK 55 AUDIO
    TITLE "16:cjc019_6772"
    INDEX 01 01:18:33
  TRACK 56 AUDIO
    TITLE "0:"
    INDEX 01 01:20:04
  TRACK 57 AUDIO
    TITLE "18:cjc019_6773"
    INDEX 01 01:20:63
  TRACK 58 AUDIO
    TITLE "0:"
    INDEX 01 01:23:40
  TRACK 59 AUDIO
    TITLE "17:cjc019_6774"
    INDEX 01 01:24:18
  TRACK 60 AUDIO
    TITLE "0:"
    INDEX 01 01:25:68
  TRACK 61 AUDIO
    TITLE "16:cjc019_6775"
    INDEX 01 01:27:57
  TRACK 62 AUDIO
    TITLE "0:"
    INDEX 01 01:29:17
  TRACK 63 AUDIO
    TITLE "18:cjc019_6776"
    INDEX 01 01:30:05
  TRACK 64 AUDIO
    TITLE "0:"
    INDEX 01 01:34:01
  TRACK 65 AUDIO
    TITLE "17:cjc019_6777"
    INDEX 01 01:34:52
  TRACK 66 AUDIO
    TITLE "0:"
    INDEX 01 01:36:11
  TRACK 67 AUDIO
    TITLE "16:cjc019_6778"
    INDEX 01 01:37:73
  TRACK 68 AUDIO
    TITLE "0:"
    INDEX 01 01:39:31
  TRACK 69 AUDIO
    TITLE "18:cjc019_6779"
    INDEX 01 01:40:07
  TRACK 70 AUDIO
    TITLE "0:"
    INDEX 01 01:41:34
  TRACK 71 AUDIO
    TITLE "17:cjc019_6780"
    INDEX 01 01:42:14
  TRACK 72 AUDIO
    TITLE "0:"
    INDEX 01 01:43:54
  TRACK 73 AUDIO
    TITLE "16:cjc019_6781"
    INDEX 01 01:45:32
  TRACK 74 AUDIO
    TITLE "0:"
    INDEX 01 01:46:68
  TRACK 75 AUDIO
    TITLE "18:cjc019_6782"
    INDEX 01 01:47:56
  TRACK 76 AUDIO
    TITLE "0:"
    INDEX 01 01:50:02
  TRACK 77 AUDIO
    TITLE "17:cjc019_6783"
    INDEX 01 01:50:56
  TRACK 78 AUDIO
    TITLE "0:"
    INDEX 01 01:52:28
  TRACK 79 AUDIO
    TITLE "16:cjc019_6784"
    INDEX 01 01:54:15
  TRACK 80 AUDIO
    TITLE "0:"
    INDEX 01 01:55:34
  TRACK 81 AUDIO
    TITLE "18:cjc019_6785"
    INDEX 01 01:56:14
  TRACK 82 AUDIO
    TITLE "0:"
    INDEX 01 01:59:40
  TRACK 83 AUDIO
    TITLE "17:cjc019_6786"
    INDEX 01 02:00:12
  TRACK 84 AUDIO
    TITLE "0:"
    INDEX 01 02:01:31
  TRACK 85 AUDIO
    TITLE "16:cjc019_6787"
    INDEX 01 02:03:10
  TRACK 86 AUDIO
    TITLE "0:"
    INDEX 01 02:04:47
  TRACK 87 AUDIO
    TITLE "18:cjc019_6788"
    INDEX 01 02:05:25
  TRACK 88 AUDIO
    TITLE "0:"
    INDEX 01 02:06:34
  TRACK 89 AUDIO
    TITLE "17:cjc019_6789"
    INDEX 01 02:07:18
  TRACK 90 AUDIO
    TITLE "0:"
    INDEX 01 02:08:52
  TRACK 91 AUDIO
    TITLE "16:cjc019_6790"
    INDEX 01 02:10:30
  TRACK 92 AUDIO
    TITLE "0:"
    INDEX 01 02:11:66
  TRACK 93 AUDIO
    TITLE "18:cjc019_6791"
    INDEX 01 02:12:50
  TRACK 94 AUDIO
    TITLE "0:"
    INDEX 01 02:15:35
  TRACK 95 AUDIO
    TITLE "17:cjc019_6792"
    INDEX 01 02:16:15
  TRACK 96 AUDIO
    TITLE "0:"
    INDEX 01 02:17:47
  TRACK 97 AUDIO
    TITLE "16:cjc019_6793"
    INDEX 01 02:19:33
  TRACK 98 AUDIO
    TITLE "0:"
    INDEX 01 02:20:71
  TRACK 99 AUDIO
    TITLE "18:cjc019_6794"
    INDEX 01 02:21:49
  TRACK 100 AUDIO
    TITLE "0:"
    INDEX 01 02:24:67
  TRACK 101 AUDIO
    TITLE "17:cjc019_6795"
    INDEX 01 02:25:51
  TRACK 102 AUDIO
    TITLE "0:"
    INDEX 01 02:27:20
  TRACK 103 AUDIO
    TITLE "16:cjc019_6796"
    INDEX 01 02:29:00
  TRACK 104 AUDIO
    TITLE "0:"
    INDEX 01 02:30:19
  TRACK 105 AUDIO
    TITLE "18:cjc019_6797"
    INDEX 01 02:31:01
  TRACK 106 AUDIO
    TITLE "0:"
    INDEX 01 02:34:07
  TRACK 107 AUDIO
    TITLE "17:cjc019_6798"
    INDEX 01 02:34:62
  TRACK 108 AUDIO
    TITLE "0:"
    INDEX 01 02:36:12
